<svg xmlns="http://www.w3.org/2000/svg" width="150" height="60" viewBox="0 0 150 60" fill="none">
  <path d="M16.6055 18.75H12.3931V41.25H16.6055V18.75Z" fill="#002456"/>
  <path d="M25.0302 18.75H20.8179V41.25H25.0302V18.75Z" fill="#002456"/>
  <path d="M33.2632 18.75H29.0508V41.25H33.2632V18.75Z" fill="#28246C"/>
  <path d="M94.1387 39.4434C90.1172 39.4434 86.7227 36.0489 86.7227 32.0274C86.7227 28.0059 90.1172 24.6114 94.1387 24.6114C98.1602 24.6114 101.555 28.0059 101.555 32.0274C101.555 36.0489 98.1602 39.4434 94.1387 39.4434Z" fill="#ED1C2E"/>
  <path d="M66.4161 28.3848C66.4161 22.4848 70.2581 18.7598 75.3206 18.7598C77.5586 18.7598 79.6631 19.6023 80.8456 21.2773L78.3831 23.1698C77.6071 22.1348 76.6871 21.6598 75.3521 21.6598C72.5161 21.6598 70.0536 24.2698 70.0536 28.3848C70.0536 32.4998 72.5161 35.1098 75.3521 35.1098C76.8196 35.1098 77.7396 34.4748 78.5156 33.4398L81.0416 35.2648C79.7326 37.0348 77.6281 38.0098 75.3206 38.0098C70.1961 38.0098 66.4161 34.2848 66.4161 28.3848Z" fill="#002456"/>
  <path d="M88.2129 32.6499H96.9004C97.0504 32.1149 97.1434 31.5349 97.1434 30.9249C97.1434 27.5149 94.9974 24.9199 91.8474 24.9199C88.7949 24.9199 86.1699 27.8274 86.1699 31.5649C86.1699 35.3024 88.7639 38.2099 92.4864 38.2099C94.3944 38.2099 95.7034 37.6449 96.8244 36.3824L94.9664 34.8524C94.2514 35.4474 93.4754 35.7599 92.5554 35.7599C90.8319 35.7599 89.5229 34.8524 89.1014 33.2379C89.0084 33.0374 88.9464 32.8524 88.9279 32.6499H88.2129ZM88.9589 30.3149C89.2869 28.7774 90.3374 27.3699 91.8474 27.3699C93.3264 27.3699 94.2774 28.6324 94.2774 30.2374C94.2774 30.2684 94.2774 30.2999 94.2774 30.3149H88.9589Z" fill="#ED1C2E"/>
  <path d="M57.0908 32.6499H65.7783C65.9283 32.1149 66.0213 31.5349 66.0213 30.9249C66.0213 27.5149 63.8753 24.9199 60.7253 24.9199C57.6728 24.9199 55.0478 27.8274 55.0478 31.5649C55.0478 35.3024 57.6418 38.2099 61.3643 38.2099C63.2723 38.2099 64.5813 37.6449 65.7023 36.3824L63.8443 34.8524C63.1293 35.4474 62.3533 35.7599 61.4333 35.7599C59.7098 35.7599 58.4008 34.8524 57.9793 33.2379C57.8863 33.0374 57.8243 32.8524 57.8058 32.6499H57.0908ZM57.8368 30.3149C58.1648 28.7774 59.2153 27.3699 60.7253 27.3699C62.2043 27.3699 63.1553 28.6324 63.1553 30.2374C63.1553 30.2684 63.1553 30.2999 63.1553 30.3149H57.8368Z" fill="#002456"/>
  <path d="M42.3292 24.7129L37.6992 38.0004H41.2757L42.0672 35.3594H48.3997L49.1912 38.0004H52.7987L48.1687 24.7129H42.3292ZM43.0442 32.4619L43.4657 31.1529L44.6327 27.1314L45.7987 31.1529L46.2202 32.4619H43.0442Z" fill="#002456"/>
  <path d="M111.219 24.7129H107.827L103.042 38.0004H106.556L107.347 35.3594H113.68L114.472 38.0004H118.079L113.294 24.7129H111.219ZM108.324 32.4619L109.581 28.4404L110.847 32.4619H108.324Z" fill="#28246C"/>
  <path d="M137.75 24.7129H134.359L129.574 38.0004H133.087L133.879 35.3594H140.211L141.003 38.0004H144.61L139.825 24.7129H137.75ZM134.855 32.4619L136.112 28.4404L137.378 32.4619H134.855Z" fill="#ED1C2E"/>
  <path d="M121.346 24.7129H117.586V38.0004H121.346V31.3184L126.347 38.0004H130.705L124.707 30.4034L130.18 24.7129H126.221L121.346 30.0884V24.7129Z" fill="#28246C"/>
</svg> 