<svg xmlns="http://www.w3.org/2000/svg" width="150" height="60" viewBox="0 0 150 60" fill="none">
  <path d="M136.562 21.75H13.4375C12.0937 21.75 11 22.8438 11 24.1875V35.8125C11 37.1562 12.0937 38.25 13.4375 38.25H136.562C137.906 38.25 139 37.1562 139 35.8125V24.1875C139 22.8438 137.906 21.75 136.562 21.75Z" fill="white"/>
  <path d="M23.75 22.125H16.875C16.1562 22.125 15.625 22.6562 15.625 23.375V36.4375C15.625 37.1562 16.1562 37.6875 16.875 37.6875H23.75C24.4688 37.6875 25 37.1562 25 36.4375V23.375C25 22.6562 24.4688 22.125 23.75 22.125Z" fill="#00519E"/>
  <path d="M22.5 26.5H18.125V27.75H22.5V26.5Z" fill="white"/>
  <path d="M22.5 29H18.125V30.25H22.5V29Z" fill="white"/>
  <path d="M22.5 31.5H18.125V32.75H22.5V31.5Z" fill="white"/>
  <path d="M42.5 22.125H35.625C34.9062 22.125 34.375 22.6562 34.375 23.375V36.4375C34.375 37.1562 34.9062 37.6875 35.625 37.6875H42.5C43.2188 37.6875 43.75 37.1562 43.75 36.4375V23.375C43.75 22.6562 43.2188 22.125 42.5 22.125Z" fill="#009FE3"/>
  <path d="M41.25 26.5H36.875V27.75H41.25V26.5Z" fill="white"/>
  <path d="M41.25 29H36.875V30.25H41.25V29Z" fill="white"/>
  <path d="M41.25 31.5H36.875V32.75H41.25V31.5Z" fill="white"/>
  <path d="M61.25 22.125H54.375C53.6562 22.125 53.125 22.6562 53.125 23.375V36.4375C53.125 37.1562 53.6562 37.6875 54.375 37.6875H61.25C61.9688 37.6875 62.5 37.1562 62.5 36.4375V23.375C62.5 22.6562 61.9688 22.125 61.25 22.125Z" fill="#E91E25"/>
  <path d="M60 26.5H55.625V27.75H60V26.5Z" fill="white"/>
  <path d="M60 29H55.625V30.25H60V29Z" fill="white"/>
  <path d="M60 31.5H55.625V32.75H60V31.5Z" fill="white"/>
  <path d="M73.125 30.0625H70.625V25.375H73.125C74.5625 25.375 75.625 27.0625 75.625 27.0625C75.625 27.0625 74.5625 30.0625 73.125 30.0625Z" fill="#00519E"/>
  <path d="M81.25 25.375H84.375V30.0625H81.25V25.375Z" fill="#00519E"/>
  <path d="M90 30.0625H87.5V25.375H90C91.875 25.375 93.125 27.0625 93.125 27.0625C93.125 27.0625 91.875 30.0625 90 30.0625Z" fill="#00519E"/>
  <path d="M94.375 25.375H100C101.875 25.375 100.625 30.0625 100.625 30.0625H94.375V25.375Z" fill="#00519E"/>
  <path d="M105 25.375H101.875V30.0625H105V25.375Z" fill="#00519E"/>
  <path d="M127.5 25.375H130.625V30.0625H127.5V25.375Z" fill="#E91E25"/>
  <path d="M116.875 30.0625H113.125V25.375H116.875C118.75 25.375 120.625 27.0625 120.625 27.0625C120.625 27.0625 118.75 30.0625 116.875 30.0625Z" fill="#E91E25"/>
  <path d="M115.625 30.0625H111.875C110 30.0625 108.125 27.0625 108.125 27.0625C108.125 27.0625 110 25.375 111.875 25.375H115.625V30.0625Z" fill="#E91E25"/>
  <path d="M136.25 30.0625H132.5C130.625 30.0625 128.75 27.0625 128.75 27.0625C128.75 27.0625 130.625 25.375 132.5 25.375H136.25V30.0625Z" fill="#E91E25"/>
  <path d="M69.375 30.0625H65.625C64.375 30.0625 62.5 27.0625 62.5 27.0625C62.5 27.0625 64.375 25.375 65.625 25.375H69.375V30.0625Z" fill="#00519E"/>
  <path d="M68.4375 33.4375H79.0625C79.0625 33.4375 79.6875 36.4375 76.5625 37.375H68.4375C68.4375 37.375 65.625 37.0625 65.9375 33.4375H68.4375Z" fill="#00519E"/>
  <path d="M81.875 33.4375H96.5625C96.5625 33.4375 97.1875 36.4375 94.0625 37.375H81.875C81.875 37.375 79.0625 37.0625 79.375 33.4375H81.875Z" fill="#00519E"/>
  <path d="M109.375 33.4375H123.75C123.75 33.4375 124.375 36.4375 121.25 37.375H109.375C109.375 37.375 106.562 37.0625 106.875 33.4375H109.375Z" fill="#E91E25"/>
  <path d="M126.562 33.4375H135.625C135.625 33.4375 136.25 36.4375 133.125 37.375H126.562C126.562 37.375 123.75 37.0625 124.062 33.4375H126.562Z" fill="#E91E25"/>
</svg> 