<svg xmlns="http://www.w3.org/2000/svg" width="80" height="50" viewBox="0 0 80 50" fill="none">
  <path d="M71.6667 35.4165H8.33333C6.58333 35.4165 5.16667 33.9998 5.16667 32.2498V17.7498C5.16667 15.9998 6.58333 14.5832 8.33333 14.5832H71.6667C73.4167 14.5832 74.8333 15.9998 74.8333 17.7498V32.2498C74.8333 33.9998 73.4167 35.4165 71.6667 35.4165Z" fill="#055DA6"/>
  <path d="M25.8333 26.3334V26.1668H24.1666V26.3334C24.1666 26.8334 23.75 27.2501 23.25 27.2501C22.75 27.2501 22.3333 26.8334 22.3333 26.3334V23.6668C22.3333 23.1668 22.75 22.7501 23.25 22.7501C23.75 22.7501 24.1666 23.1668 24.1666 23.6668V23.8334H25.8333V23.6668C25.8333 22.2501 24.6666 21.0834 23.25 21.0834C21.8333 21.0834 20.6666 22.2501 20.6666 23.6668V26.3334C20.6666 27.7501 21.8333 28.9168 23.25 28.9168C24.6666 28.9168 25.8333 27.7501 25.8333 26.3334Z" fill="white"/>
  <path d="M39.4167 22.7501H41.0834V28.7501H42.8334V22.7501H44.5V21.0834H39.4167V22.7501Z" fill="white"/>
  <path d="M36.5833 26.3334C36.5833 26.8334 36.1667 27.2501 35.6667 27.2501C35.1667 27.2501 34.75 26.8334 34.75 26.3334V21.0834H33.0833V26.3334C33.0833 27.7501 34.25 28.9168 35.6667 28.9168C37.0833 28.9168 38.25 27.7501 38.25 26.3334V21.0834H36.5833V26.3334Z" fill="white"/>
  <path d="M30.3333 25.0001L32.3333 21.0834H30.4166L29.1666 23.8334L27.9166 21.0834H26.0833L28.0833 25.0001V28.7501H29.75V25.0001H30.3333Z" fill="white"/>
  <path d="M47.8333 21.0834H46.0833L44.4166 28.7501H46.1666L46.5 27.0834H48.3333L48.6666 28.7501H50.4166L48.75 21.0834H47.8333ZM46.8333 25.4168L47.4166 22.7501L48 25.4168H46.8333Z" fill="white"/>
  <path d="M58.25 21.0834H56.5833L55.1666 23.6668L53.75 21.0834H52.0833V28.7501H53.8333V24.2501L55.1666 26.5834L56.5 24.2501V28.7501H58.25V21.0834Z" fill="white"/>
  <path d="M59.5 24.2501H60.6667C61.4167 24.2501 62 24.8334 62 25.5834C62 26.3334 61.4167 26.9168 60.6667 26.9168H59.5V24.2501ZM59.5 28.7501H60.6667C62.5833 28.7501 63.75 27.3334 63.75 25.5834C63.75 23.8334 62.4167 22.4168 60.6667 22.4168H57.8333V28.7501H59.5Z" fill="white"/>
</svg> 