<svg xmlns="http://www.w3.org/2000/svg" width="80" height="50" viewBox="0 0 80 50" fill="none">
  <path d="M61.1667 14.1665H18.8334C16.45 14.1665 14.5 16.1165 14.5 18.4998V31.4998C14.5 33.8832 16.45 35.8332 18.8334 35.8332H61.1667C63.55 35.8332 65.5 33.8832 65.5 31.4998V18.4998C65.5 16.1165 63.55 14.1665 61.1667 14.1665Z" fill="white"/>
  <path d="M43.5 26.8332H45.5833V23.1665H47.25V26.8332H49.3333V21.3332H43.5V26.8332Z" fill="#5F6368"/>
  <path d="M40.6668 21.3332H38.3335C37.0835 21.3332 36.0835 22.3332 36.0835 23.5832C36.0835 24.8332 37.0835 25.8332 38.3335 25.8332H40.6668C41.9168 25.8332 42.9168 24.8332 42.9168 23.5832C42.9168 22.3332 41.9168 21.3332 40.6668 21.3332ZM40.6668 24.1665H38.3335C38.0002 24.1665 37.7502 23.9165 37.7502 23.5832C37.7502 23.2498 38.0002 22.9998 38.3335 22.9998H40.6668C41.0002 22.9998 41.2502 23.2498 41.2502 23.5832C41.2502 23.9165 41.0002 24.1665 40.6668 24.1665Z" fill="#5F6368"/>
  <path d="M53.6668 25.8332C55.2502 25.8332 56.5002 24.5832 56.5002 22.9998C56.5002 21.4165 55.2502 20.1665 53.6668 20.1665C52.0835 20.1665 50.8335 21.4165 50.8335 22.9998C50.8335 24.5832 52.0835 25.8332 53.6668 25.8332ZM53.6668 22.1665C54.0835 22.1665 54.4168 22.4998 54.4168 22.9165C54.4168 23.3332 54.0835 23.6665 53.6668 23.6665C53.2502 23.6665 52.9168 23.3332 52.9168 22.9165C52.9168 22.4998 53.2502 22.1665 53.6668 22.1665Z" fill="#5F6368"/>
  <path d="M33.3333 25.8332C34.9166 25.8332 36.1666 24.5832 36.1666 22.9998C36.1666 21.4165 34.9166 20.1665 33.3333 20.1665C31.7499 20.1665 30.4999 21.4165 30.4999 22.9998C30.4999 24.5832 31.7499 25.8332 33.3333 25.8332ZM33.3333 22.1665C33.7499 22.1665 34.0833 22.4998 34.0833 22.9165C34.0833 23.3332 33.7499 23.6665 33.3333 23.6665C32.9166 23.6665 32.5833 23.3332 32.5833 22.9165C32.5833 22.4998 32.9166 22.1665 33.3333 22.1665Z" fill="#4285F4"/>
  <path d="M27.3333 25.8332C28.9167 25.8332 30.1667 24.5832 30.1667 22.9998C30.1667 21.4165 28.9167 20.1665 27.3333 20.1665C25.75 20.1665 24.5 21.4165 24.5 22.9998C24.5 24.5832 25.75 25.8332 27.3333 25.8332ZM27.3333 22.1665C27.75 22.1665 28.0833 22.4998 28.0833 22.9165C28.0833 23.3332 27.75 23.6665 27.3333 23.6665C26.9167 23.6665 26.5833 23.3332 26.5833 22.9165C26.5833 22.4998 26.9167 22.1665 27.3333 22.1665Z" fill="#EA4335"/>
  <path d="M21.3333 25.8332L22.9167 21.3332H21.1667L20.1667 24.5832H20.0833L19.0833 21.3332H17.3333L18.9167 25.8332H21.3333Z" fill="#34A853"/>
  <path d="M57.6667 20.1665C57.0834 20.1665 56.5834 20.6665 56.5834 21.2498V24.7498C56.5834 25.3332 57.0834 25.8332 57.6667 25.8332C58.2501 25.8332 58.7501 25.3332 58.7501 24.7498V21.2498C58.7501 20.6665 58.2501 20.1665 57.6667 20.1665Z" fill="#FBBC04"/>
</svg> 