<svg xmlns="http://www.w3.org/2000/svg" width="80" height="50" viewBox="0 0 80 50" fill="none">
  <path d="M61.1667 14.1665H18.8334C16.45 14.1665 14.5 16.1165 14.5 18.4998V31.4998C14.5 33.8832 16.45 35.8332 18.8334 35.8332H61.1667C63.55 35.8332 65.5 33.8832 65.5 31.4998V18.4998C65.5 16.1165 63.55 14.1665 61.1667 14.1665Z" fill="white"/>
  <path d="M30.9166 33.0418C28.7499 33.0418 27.0833 31.2918 27.0833 29.1252C27.0833 26.9585 28.8333 25.2085 30.9166 25.2085C33.0833 25.2085 34.7499 26.9585 34.7499 29.1252C34.7499 31.2918 33.0833 33.0418 30.9166 33.0418Z" fill="#FFAEAE"/>
  <path d="M30.9167 16.875H34.7501V24.7917H30.9167V16.875Z" fill="#FFAEAE"/>
  <path d="M43.8333 20.7915C42.8333 20.7915 41.8333 21.2915 41.25 22.0415V21.0415H37.4166V33.0415H41.25V26.2915C41.25 24.9582 42.0833 24.2082 43.25 24.2082C44.4166 24.2082 45.0833 24.9582 45.0833 26.2915V33.0415H48.9166V25.4582C48.9166 22.5415 46.8333 20.7915 43.8333 20.7915Z" fill="#FFAEAE"/>
  <path d="M53.25 21.0415H49.4166V33.0415H53.25V21.0415Z" fill="#FFAEAE"/>
  <path d="M51.3334 19.875C52.5 19.875 53.4167 18.9584 53.4167 17.7917C53.4167 16.6251 52.5 15.7084 51.3334 15.7084C50.1667 15.7084 49.25 16.6251 49.25 17.7917C49.25 18.9584 50.1667 19.875 51.3334 19.875Z" fill="#FFAEAE"/>
</svg> 