<svg xmlns="http://www.w3.org/2000/svg" width="80" height="40" viewBox="0 0 80 40" fill="none">
  <rect width="80" height="40" rx="4" fill="white"/>
  <path d="M19.0498 11.75H13.8998V28.25H19.0498V11.75Z" fill="#2DABE3"/>
  <path d="M33.8497 11.75H28.6997V28.25H33.8497V11.75Z" fill="#2DABE3"/>
  <path d="M26.3996 11.75H21.2996V28.25H26.3996V11.75Z" fill="#2DABE3"/>
  <path d="M39.5997 25.9998L42.4497 20.1498L38.9997 14.2998H44.8497L46.4497 17.8498L47.9997 14.2998H53.8997L50.4997 20.2498L53.9997 25.9998H48.1497L46.3997 22.2998L44.6497 25.9998H39.5997Z" fill="#2DABE3"/>
  <path d="M60.7496 21.25L58.7996 25.95H54.0996L61.2996 11.7H65.8496L73.1496 25.95H68.3996L66.4496 21.25H60.7496ZM65.4496 17.95L63.5996 14.15L61.7496 17.95H65.4496Z" fill="#2DABE3"/>
  <path d="M13.8998 29.2499V29.9999H14.4998V31.4999H15.2998V29.9999H15.8998V29.2499H13.8998Z" fill="#2DABE3"/>
  <path d="M16.2498 30.05C16.2498 29.7 16.4498 29.4 16.8498 29.4C17.2498 29.4 17.4498 29.7 17.4498 30.05V30.7C17.4498 31.05 17.2498 31.35 16.8498 31.35C16.4498 31.35 16.2498 31.05 16.2498 30.7V30.05ZM15.4998 30.65C15.4998 31.45 16.0998 32 16.8498 32C17.5998 32 18.1998 31.45 18.1998 30.65V30.1C18.1998 29.3 17.5998 28.75 16.8498 28.75C16.0998 28.75 15.4998 29.3 15.4998 30.1V30.65Z" fill="#2DABE3"/>
  <path d="M19.4998 29.25H18.7998V31.5H19.5498V30.5H20.2998C20.9498 30.5 21.2998 30.15 21.2998 29.85C21.2998 29.55 20.9498 29.25 20.2998 29.25H19.4998ZM19.5498 29.85V29.9H20.1998C20.3998 29.9 20.4998 29.95 20.4998 30C20.4998 30.05 20.3998 30.1 20.1998 30.1H19.5498V29.85Z" fill="#2DABE3"/>
  <path d="M23.2998 29.95H22.3498V29.25H21.5998V31.5H22.3498V30.6H23.2998V31.5H24.0498V29.25H23.2998V29.95Z" fill="#2DABE3"/>
  <path d="M25.5495 29.25H24.7998V31.5H26.7998V30.8H25.5495V29.25Z" fill="#2DABE3"/>
  <path d="M27.1995 29.25V31.5H27.9995V30.8H28.7995C29.4495 30.8 29.7995 30.45 29.7995 30.15C29.7995 29.85 29.4495 29.55 28.7995 29.55H28.7495V29.25H27.1995ZM27.9995 29.85V30.15H28.6495C28.8495 30.15 28.9495 30.2 28.9495 30.25C28.9495 30.3 28.8495 30.35 28.6495 30.35H27.9995V29.85Z" fill="#2DABE3"/>
  <path d="M33.1494 29.25H32.3994V30.75C32.3994 31.1 32.1994 31.35 31.8494 31.35C31.4994 31.35 31.2994 31.1 31.2994 30.75V29.25H30.5494V30.8C30.5494 31.5 31.0494 32 31.8494 32C32.6494 32 33.1494 31.5 33.1494 30.8V29.25Z" fill="#2DABE3"/>
  <path d="M34.4995 29.9H35.4495V29.25H32.7495V29.9H33.6995V31.5H34.4995V29.9Z" fill="#2DABE3"/>
  <path d="M36.4995 29.25H35.7495V31.5H36.4995V29.25Z" fill="#2DABE3"/>
  <path d="M38.1997 29.25V31.5H38.9997V30.55L40.2497 31.5H41.2997L39.5497 30.05L41.1997 29.25H40.1997L38.9997 29.85V29.25H38.1997Z" fill="#2DABE3"/>
  <path d="M41.5998 29.25V31.5H44.1998V30.85H42.3498V30.55H44.0498V29.95H42.3498V29.9H44.1998V29.25H41.5998Z" fill="#2DABE3"/>
  <path d="M45.8495 29.25H44.5496L45.7496 31.5H46.7996L47.9996 29.25H46.7496L46.3496 30.15L45.8495 29.25Z" fill="#2DABE3"/>
  <path d="M48.2998 29.25V31.5H50.9498V30.85H49.0998V30.55H50.8498V29.95H49.0998V29.9H50.9498V29.25H48.2998Z" fill="#2DABE3"/>
  <path d="M51.2998 29.25V31.5H51.9998V30.55L53.2498 31.5H54.2998L52.5498 30.05L54.1998 29.25H53.1998L51.9998 29.85V29.25H51.2998Z" fill="#2DABE3"/>
  <path d="M55.0996 29.25H54.3496V31.5H56.3496V30.8H55.0996V29.25Z" fill="#2DABE3"/>
  <path d="M33.8496 31.5L33.3996 30.55C33.6496 30.45 33.8996 30.25 33.8996 29.95C33.8996 29.65 33.5496 29.35 32.8996 29.35H32.0996V31.6H32.8496V30.7H32.9996C33.0996 30.7 33.1996 30.75 33.2496 30.85L33.5996 31.5H33.8496Z" fill="#2DABE3"/>
</svg> 