<svg xmlns="http://www.w3.org/2000/svg" width="80" height="40" viewBox="0 0 80 40" fill="none">
  <rect width="80" height="40" rx="4" fill="white"/>
  <path d="M16.354 15.2666V20.2666C16.354 20.2666 19.154 19.3999 19.154 17.7332C19.154 16.0666 16.354 15.2666 16.354 15.2666Z" fill="#635BFF"/>
  <path d="M16.354 20.2668V25.2668C16.354 25.2668 19.154 24.4001 19.154 22.7334C19.154 21.0668 16.354 20.2668 16.354 20.2668Z" fill="#635BFF"/>
  <path d="M16.354 13.5998V15.2665C16.354 15.2665 21.82 16.7331 21.82 20.2665C21.82 23.7998 16.354 25.2665 16.354 25.2665V26.9331C16.354 26.9331 23.62 25.7331 23.62 20.1331C23.62 14.5331 16.354 13.5998 16.354 13.5998Z" fill="#635BFF"/>
  <path d="M63.7988 17.3336H62.7988V15.4669H61.7988V17.3336H60.7988V18.2003H61.7988V22.0669C61.7988 23.6669 63.1321 24.0003 64.1321 24.0003C64.6654 24.0003 64.9988 23.8669 64.9988 23.8669V22.8669C64.9988 22.8669 64.7988 22.9336 64.3988 22.9336C63.9988 22.9336 63.7988 22.7336 63.7988 22.0669V18.2003H64.9988V17.3336H63.7988Z" fill="#635BFF"/>
  <path d="M66.933 17.3335C66.199 17.3335 65.666 17.6668 65.333 18.2668H65.266V17.4002H63.666V24.0002H65.333V20.1335C65.333 19.2002 65.8 18.6668 66.599 18.6668C67.4 18.6668 67.733 19.2002 67.733 20.1335V24.0002H69.399V19.6668C69.4 18.0002 68.466 17.3335 66.933 17.3335Z" fill="#635BFF"/>
  <path d="M58.933 17.3335C58.133 17.3335 57.599 17.6668 57.266 17.9335H57.2V14.2002H55.533V24.0002H57.133V23.2001H57.199C57.533 23.5335 58.066 23.8669 58.933 23.8669C60.599 23.8669 61.866 22.5336 61.866 20.6001C61.866 18.7332 60.599 17.3335 58.933 17.3335ZM58.533 22.3335C57.599 22.3335 57.066 21.5336 57.066 20.6001C57.066 19.6668 57.599 18.8669 58.533 18.8669C59.466 18.8669 60 19.6668 60 20.6001C60 21.5336 59.466 22.3335 58.533 22.3335Z" fill="#635BFF"/>
  <path d="M53.2661 17.3335C52.666 17.3335 52.133 17.6002 51.7994 18.0668H51.7327V17.4002H50.1328V24.0002H51.7994V20.4669C51.7994 19.6002 52.2661 19.0002 53.0661 19.0002C53.333 19.0002 53.599 19.0669 53.7994 19.1336L54.333 17.4668C54.1328 17.4003 53.7994 17.3335 53.2661 17.3335Z" fill="#635BFF"/>
  <path d="M48.2666 17.3335C46.3999 17.3335 45.1999 18.6668 45.1999 20.6001C45.1999 22.5335 46.3999 23.8669 48.2666 23.8669C49.3332 23.8669 50.1999 23.5335 50.7999 22.8669L49.7999 21.9335C49.3999 22.3335 48.8665 22.5335 48.2666 22.5335C47.3999 22.5335 46.9332 22.0668 46.7999 21.3335H51.0666V20.7335C51.0666 18.6668 49.9999 17.3335 48.2666 17.3335ZM46.7999 20.2001C46.9332 19.4669 47.3999 18.8669 48.2666 18.8669C49.0666 18.8669 49.5332 19.4001 49.6665 20.2001H46.7999Z" fill="#635BFF"/>
  <path d="M42.0666 23.8669C42.7999 23.8669 43.3999 23.6669 43.7999 23.4001L43.333 22.0669C43.0667 22.2669 42.6 22.4001 42.1333 22.4001C41.3333 22.4001 40.8667 21.9335 40.8667 21.0669V14.2002H39.2V21.2669C39.2 22.8001 40.2666 23.8669 42.0666 23.8669Z" fill="#635BFF"/>
  <path d="M36.4667 22.7336C36.2 22.7336 36 22.6003 36 22.2669V18.8669H37.4667V17.4003H36V15.6003L34.3334 15.7336V17.4003H33.2667V18.8669H34.3334V22.7336C34.3334 23.7336 35.0667 24.0669 36.0001 24.0669C36.6 24.0669 37.1334 23.8669 37.4 23.6669L37.0667 22.2003C36.8 22.4669 36.6 22.7336 36.4667 22.7336Z" fill="#635BFF"/>
  <path d="M29.9333 17.3335C28.0666 17.3335 26.8666 18.6668 26.8666 20.6001C26.8666 22.5335 28.0666 23.8669 29.9333 23.8669C31 23.8669 31.8666 23.5335 32.4666 22.8669L31.4666 21.9335C31.0666 22.3335 30.5333 22.5335 29.9333 22.5335C29.0666 22.5335 28.6 22.0668 28.4666 21.3335H32.7333V20.7335C32.7333 18.6668 31.6666 17.3335 29.9333 17.3335ZM28.4666 20.2001C28.6 19.4669 29.0666 18.8669 29.9333 18.8669C30.7333 18.8669 31.2 19.4001 31.3333 20.2001H28.4666Z" fill="#635BFF"/>
</svg> 