<svg xmlns="http://www.w3.org/2000/svg" width="80" height="50" viewBox="0 0 80 50" fill="none">
  <path d="M71.5001 35.4165H8.50012C6.80012 35.4165 5.41678 34.0332 5.41678 32.3332V17.6665C5.41678 15.9665 6.80012 14.5832 8.50012 14.5832H71.5001C73.2001 14.5832 74.5834 15.9665 74.5834 17.6665V32.3332C74.5834 34.0332 73.2001 35.4165 71.5001 35.4165Z" fill="#016FD0"/>
  <path d="M19.1916 20.6415L14.0583 27.1249H18.1416V29.6665H11.0833V27.3749L16.1999 20.8915H12.3083V18.3499H19.1916V20.6415Z" fill="white"/>
  <path d="M20.3334 18.3499H23.8334V22.0332H27.4167V18.3499H30.9167V29.6665H27.4167V24.5749H23.8334V29.6665H20.3334V18.3499Z" fill="white"/>
  <path d="M44.9166 25.1664H39.6833V27.1247H45.4999V29.6664H36.1833V18.3497H45.4999V20.8914H39.6833V22.8497H44.9166V25.1664Z" fill="white"/>
  <path d="M52.625 24.4998L47.375 18.3498H51.5V16.8498H65.0417V18.3498H60.625L65.875 24.4998L60.625 30.6498H65.0417V32.1498H51.5V30.6498H56.2083L51.3333 24.4998H52.625Z" fill="white"/>
  <path d="M46.625 24.4998L51.3333 18.3498H47.375V16.8498H60.9167V18.3498H56.2083L61.4583 24.4998L56.2083 30.6498H60.9167V32.1498H47.375V30.6498H51.3333L46.0833 24.4998H46.625Z" fill="white"/>
  <path d="M32.8501 29.6665L28.5417 24.1665L32.8501 18.3499H36.8084L32.6334 24.0832L36.9251 29.6665H32.8501Z" fill="white"/>
</svg> 