<svg xmlns="http://www.w3.org/2000/svg" width="80" height="50" viewBox="0 0 80 50" fill="none">
  <path d="M61.1667 14.1665H18.8334C16.45 14.1665 14.5 16.1165 14.5 18.4998V31.4998C14.5 33.8832 16.45 35.8332 18.8334 35.8332H61.1667C63.55 35.8332 65.5 33.8832 65.5 31.4998V18.4998C65.5 16.1165 63.55 14.1665 61.1667 14.1665Z" fill="white"/>
  <path d="M26.9584 23.8332C26.8417 22.9998 27.3751 22.1665 28.2084 21.5832C27.3751 20.7498 26.2084 20.3332 25.1251 20.3332C23.0417 20.3332 21.4584 21.8332 21.4584 23.8332C21.4584 25.8332 23.0417 27.3332 25.1251 27.3332C26.2084 27.3332 27.3751 26.9165 28.2084 26.0832C27.3751 25.4998 26.8417 24.6665 26.9584 23.8332Z" fill="black"/>
  <path d="M35.9167 25.1665H33.9167L33.25 27.1665H32.0833L34 20.3332H35.8333L37.75 27.1665H36.5833L35.9167 25.1665ZM34.1667 24.1665H35.6667L34.9167 21.9998H34.9167L34.1667 24.1665Z" fill="black"/>
  <path d="M38.75 25.3332C38.75 23.9998 39.6667 23.0832 41.0833 23.0832C42.5 23.0832 43.4167 23.9998 43.4167 25.3332C43.4167 26.6665 42.5 27.5832 41.0833 27.5832C39.6667 27.5832 38.75 26.6665 38.75 25.3332ZM42.3333 25.3332C42.3333 24.5832 41.8333 24.0832 41.0833 24.0832C40.3333 24.0832 39.8333 24.5832 39.8333 25.3332C39.8333 26.0832 40.3333 26.5832 41.0833 26.5832C41.8333 26.5832 42.3333 26.0832 42.3333 25.3332Z" fill="black"/>
  <path d="M49.3333 27.1665H48.25L46.8333 24.5832H46.8333L46.8333 27.1665H45.75V23.1665H46.8333L48.25 25.7498H48.25L48.25 23.1665H49.3333V27.1665Z" fill="black"/>
  <path d="M50.3333 23.1665H51.4167V26.1665H53.3333V27.1665H50.3333V23.1665Z" fill="black"/>
  <path d="M54.5 23.1665H57.0833V24.1665H55.5833V24.7498H57V25.7498H55.5833V26.1665H57.0833V27.1665H54.5V23.1665Z" fill="black"/>
  <path d="M31.3333 21.5832C31.2167 20.7498 30.6833 19.9165 29.8333 19.4998C30.6833 18.8332 31.2167 17.9165 31.3333 16.9998C31.3333 16.9998 31.3333 16.9998 31.3333 16.9998C32.2167 17.9165 33.5 18.4998 34.8333 18.4998C36.375 18.4998 37.7783 17.7498 38.6667 16.5832C39.6667 17.6665 41.0833 18.4998 42.7083 18.4998C43.6667 18.4998 44.5 18.2498 45.25 17.8332C46.125 19.4165 47.8333 20.4998 49.75 20.4998C51.0833 20.4998 52.2917 20.0832 53.25 19.3332C54.0833 20.2498 55.25 20.8332 56.5833 20.8332C57.8333 20.8332 58.9583 20.3332 59.75 19.4998C59.875 20.5832 60.4167 21.4998 61.2083 22.0832C60.4167 22.8332 59.875 23.6665 59.75 24.4998C59.75 24.4998 59.75 24.4998 59.75 24.4998C58.9583 23.6665 57.8333 23.1665 56.5833 23.1665C55.25 23.1665 54.0833 23.7498 53.25 24.6665C52.2917 23.9165 51.0833 23.4998 49.75 23.4998C47.8333 23.4998 46.125 24.5832 45.25 26.1665C44.5 25.7498 43.6667 25.4998 42.7083 25.4998C41.0833 25.4998 39.6667 26.3332 38.6667 27.4165C37.7783 26.2498 36.375 25.4998 34.8333 25.4998C33.5 25.4998 32.2167 26.0832 31.3333 26.9998C31.3333 26.9998 31.3333 26.9998 31.3333 26.9998C31.2167 26.0832 30.6833 25.2498 29.8333 24.4998C30.6833 24.0832 31.2167 23.2498 31.3333 22.4165" fill="black"/>
</svg> 