<svg xmlns="http://www.w3.org/2000/svg" width="80" height="50" viewBox="0 0 80 50" fill="none">
  <path d="M52.2918 14.5835C46.0835 14.5835 41.0001 19.6668 41.0001 25.8752C41.0001 32.0835 46.0835 37.1668 52.2918 37.1668C58.5001 37.1668 63.5835 32.0835 63.5835 25.8752C63.5835 19.6668 58.5001 14.5835 52.2918 14.5835Z" fill="#EB001B"/>
  <path d="M28.7085 14.5835C22.5002 14.5835 17.4168 19.6668 17.4168 25.8752C17.4168 32.0835 22.5002 37.1668 28.7085 37.1668C34.9168 37.1668 40.0002 32.0835 40.0002 25.8752C40.0002 19.6668 34.9168 14.5835 28.7085 14.5835Z" fill="#F79E1B"/>
  <path d="M40.5001 18.2915C37.9168 20.8748 36.4168 23.1665 36.4168 25.8748C36.4168 28.5832 37.9168 30.8748 40.5001 33.4582C43.0835 30.8748 44.5835 28.5832 44.5835 25.8748C44.5835 23.1665 43.0835 20.8748 40.5001 18.2915Z" fill="#FF5F00"/>
</svg> 