<svg xmlns="http://www.w3.org/2000/svg" width="80" height="50" viewBox="0 0 80 50" fill="none">
  <path d="M61.1667 14.1665H18.8334C16.45 14.1665 14.5 16.1165 14.5 18.4998V31.4998C14.5 33.8832 16.45 35.8332 18.8334 35.8332H61.1667C63.55 35.8332 65.5 33.8832 65.5 31.4998V18.4998C65.5 16.1165 63.55 14.1665 61.1667 14.1665Z" fill="white"/>
  <path d="M32.875 28.1248H30.3333C30.0833 28.1248 29.9167 27.9582 29.875 27.7082L28.0833 17.7915C28.0833 17.6248 28.25 17.4582 28.4167 17.4582H30.4167C30.6667 17.4582 30.8333 17.6248 30.875 17.7915L31.375 21.4582C31.4167 21.7082 31.625 21.8748 31.875 21.8748H32.9167C34.9167 21.8748 36 22.8748 36.25 24.7915C36.375 25.6248 36.25 26.2915 35.8333 26.7915C35.375 27.3748 34.3333 28.1248 32.875 28.1248ZM33.2083 24.9582C33.0833 23.9582 32.2917 23.9582 31.5833 23.9582H31.1667L31.5833 26.1248C31.5833 26.2915 31.75 26.3748 31.9167 26.3748H32.125C32.625 26.3748 33.125 26.3748 33.375 26.0415C33.5 25.8748 33.25 25.4582 33.2083 24.9582Z" fill="#253B80"/>
  <path d="M39.9167 28.0832H37.9167C37.75 28.0832 37.5833 27.9998 37.5833 27.8332L37.0833 24.4165C37.0833 24.4165 37.0833 24.4165 37.0833 24.4165L35.8333 17.7498C35.8333 17.5832 35.9167 17.4165 36.0833 17.4165H38C38.25 17.4165 38.4167 17.5832 38.4167 17.7498L38.9167 21.4165C38.9167 21.6665 39.0833 21.8332 39.3333 21.8332H40.3333C42.3333 21.8332 43.4167 22.8332 43.6667 24.7498C43.75 25.5832 43.6667 26.2498 43.25 26.7498C42.8333 27.3332 41.75 28.0832 39.9167 28.0832ZM40.3333 24.9165C40.25 23.9165 39.4167 23.9165 38.6667 23.9165H38.25L38.6667 26.0832C38.6667 26.2498 38.8333 26.3332 39 26.3332H39.1667C39.6667 26.3332 40.1667 26.3332 40.4167 25.9998C40.5833 25.8332 40.3333 25.4998 40.3333 24.9165Z" fill="#179BD7"/>
  <path d="M47.0001 21.7915H45.0001C44.8334 21.7915 44.7501 21.8748 44.6667 21.9582L44.2501 24.4582L44.0834 25.6248L43.8334 26.7082L43.5834 27.7915C43.5834 27.9582 43.6667 28.1248 43.8334 28.1248H45.6667C45.8334 28.1248 46.0001 27.9582 46.0001 27.7915L46.2501 26.2915V26.2082L46.5834 24.6248L46.8334 22.4582V22.3748V22.2915V22.2082C46.9167 22.0415 47.1667 21.7915 47.0001 21.7915Z" fill="#253B80"/>
  <path d="M55.7499 21.7915H53.7499C53.4999 21.7915 53.3333 21.8748 53.1666 22.0415L50.9166 25.2915L50.0833 22.1248C50.0833 21.9582 49.8333 21.7915 49.6666 21.7915H47.7499C47.5833 21.7915 47.4999 21.9582 47.5833 22.1248L49.1666 27.0415L47.6666 29.2082C47.4999 29.3748 47.5833 29.6248 47.7499 29.6248H49.6666C49.8333 29.6248 50.0833 29.5415 50.1666 29.3748L55.9166 22.2082C56.0833 22.0415 55.9999 21.7915 55.7499 21.7915Z" fill="#179BD7"/>
  <path d="M59.0834 17.7915L57.0834 27.7082C57.0834 27.8748 57.1667 28.0415 57.3334 28.0415H59.1667C59.4167 28.0415 59.5834 27.8748 59.6667 27.6248L61.6667 17.7082C61.6667 17.5415 61.5834 17.3748 61.4167 17.3748H59.3334C59.1667 17.4582 59.0834 17.6248 59.0834 17.7915Z" fill="#253B80"/>
</svg> 