<svg xmlns="http://www.w3.org/2000/svg" width="80" height="50" viewBox="0 0 80 50" fill="none">
  <path d="M30.3335 33.5415H24.9001L28.2668 16.6665H33.7001L30.3335 33.5415Z" fill="#00579F"/>
  <path d="M51.7918 16.9583C50.6585 16.4583 48.9918 15.8333 47.0001 15.8333C42.0835 15.8333 38.5835 18.5416 38.5835 22.4166C38.5835 25.25 41.1085 26.8333 43.0001 27.8333C44.9335 28.8333 45.5835 29.5 45.5835 30.375C45.5835 31.6666 44.0001 32.25 42.5001 32.25C40.5001 32.25 39.4168 31.875 37.7085 31.0833L37.0418 30.75L36.3335 35.375C37.6668 36.0416 40.0835 36.625 42.5835 36.625C47.8335 36.625 51.2918 33.9583 51.2918 29.8333C51.2918 27.5833 49.9168 25.8333 46.8751 24.2916C45.0001 23.2916 43.9168 22.6666 43.9168 21.75C43.9168 20.9166 44.8751 20.125 46.8751 20.125C48.5001 20.125 49.7085 20.5833 50.6251 21.0416L51.0835 21.2916L51.7918 16.9583Z" fill="#00579F"/>
  <path d="M59.5248 26.6666C60.0832 25.2083 61.8748 20.5833 61.8748 20.5833C61.8332 20.6666 62.3748 19.25 62.6665 18.375L63.0832 20.2499C63.0832 20.2499 64.1248 25.4166 64.4165 26.6666C63.5415 26.6666 60.6665 26.6666 59.5248 26.6666ZM67.0832 16.6666H62.9582C61.5832 16.6666 60.4998 17.0833 59.8748 18.625L51.5415 33.5416H57.3748C57.3748 33.5416 58.3332 31.0416 58.5415 30.5416C59.0832 30.5416 65.0415 30.5416 65.7498 30.5416C65.9165 31.1666 66.4165 33.5416 66.4165 33.5416H71.5832L67.0832 16.6666Z" fill="#00579F"/>
  <path d="M20.8417 16.6665L15.4667 28.3332L15.0084 26.0832C14.1334 23.0415 11.425 19.7915 8.4084 18.1665L13.3417 33.5415H19.2167L27.5917 16.6665H20.8417Z" fill="#00579F"/>
  <path d="M12.2583 16.6665H3.25833L3.175 17.0832C9.7 18.7915 13.9583 22.0832 15.0083 26.0832L13.425 18.6249C13.1333 17.0832 12.0583 16.7082 10.7583 16.6665H12.2583Z" fill="#FAA61A"/>
</svg> 