<svg xmlns="http://www.w3.org/2000/svg" width="150" height="60" viewBox="0 0 150 60" fill="none">
  <path d="M136.375 20H13.625C12.175 20 11 21.175 11 22.625V36.75C11 38.2 12.175 39.375 13.625 39.375H136.375C137.825 39.375 139 38.2 139 36.75V22.625C139 21.175 137.825 20 136.375 20Z" fill="#CC0000"/>
  <path d="M13.875 24.375C12.875 24.375 12.125 25.125 12.125 26.125V33.875C12.125 34.875 12.875 35.625 13.875 35.625H18.375C19.375 35.625 20.125 34.875 20.125 33.875V28.75L17.625 24.375H13.875Z" fill="white"/>
  <path d="M20.125 24.375L23 28.75H19.125C18.375 28.75 17.625 28 17.625 27.25V24.375H20.125Z" fill="white"/>
  <path d="M22.875 24.375V35.625H26.125V31.875H29.375C30.375 31.875 31.125 31.125 31.125 30.125V26.125C31.125 25.125 30.375 24.375 29.375 24.375H22.875ZM26.125 27.125H27.875C28.125 27.125 28.375 27.375 28.375 27.625V28.625C28.375 28.875 28.125 29.125 27.875 29.125H26.125V27.125Z" fill="white"/>
  <path d="M33.125 24.375V35.625H36.375V31.625H39.625V35.625H42.875V24.375H39.625V28.375H36.375V24.375H33.125Z" fill="white"/>
  <path d="M46.875 24.375C45.875 24.375 45.125 25.125 45.125 26.125V33.875C45.125 34.875 45.875 35.625 46.875 35.625H51.875C52.875 35.625 53.625 34.875 53.625 33.875V31.625H50.125V32.625H49.125V27.375H50.125V28.375H53.625V26.125C53.625 25.125 52.875 24.375 51.875 24.375H46.875Z" fill="white"/>
  <path d="M56.375 24.375V35.625H59.625V32.125H62.125C63.125 32.125 63.875 31.375 63.875 30.375V28.625H61.125V29.375H59.625V27.125H61.625C62.375 27.125 62.625 27.375 62.625 28.125V28.625H65.375V26.125C65.375 25.125 64.625 24.375 63.625 24.375H56.375Z" fill="white"/>
  <path d="M71.125 24.375C70.125 24.375 69.375 25.125 69.375 26.125V33.875C69.375 34.875 70.125 35.625 71.125 35.625H75.375V32.625H71.875V27.375H75.375V24.375H71.125Z" fill="white"/>
  <path d="M77.875 24.375V35.625H81.125V31.875H84.375C85.375 31.875 86.125 31.125 86.125 30.125V26.125C86.125 25.125 85.375 24.375 84.375 24.375H77.875ZM81.125 27.125H82.875C83.125 27.125 83.375 27.375 83.375 27.625V28.625C83.375 28.875 83.125 29.125 82.875 29.125H81.125V27.125Z" fill="white"/>
  <path d="M90.875 24.375C89.875 24.375 89.125 25.125 89.125 26.125V33.875C89.125 34.875 89.875 35.625 90.875 35.625H95.875C96.875 35.625 97.625 34.875 97.625 33.875V31.625H94.125V32.625H93.125V27.375H94.125V28.375H97.625V26.125C97.625 25.125 96.875 24.375 95.875 24.375H90.875Z" fill="white"/>
  <path d="M107.125 32.125C107.125 33.125 106.375 33.875 105.375 33.875H104.625C103.625 33.875 102.875 33.125 102.875 32.125V24.375H99.625V32.125C99.625 34.125 101.375 35.875 103.375 35.875H106.625C108.625 35.875 110.375 34.125 110.375 32.125V24.375H107.125V32.125Z" fill="white"/>
  <path d="M112.875 24.375V35.625H116.125V31.875H119.375C120.375 31.875 121.125 31.125 121.125 30.125V26.125C121.125 25.125 120.375 24.375 119.375 24.375H112.875ZM116.125 27.125H117.875C118.125 27.125 118.375 27.375 118.375 27.625V28.625C118.375 28.875 118.125 29.125 117.875 29.125H116.125V27.125Z" fill="white"/>
  <path d="M126.125 24.375V32.125H123.125V35.125H129.375V24.375H126.125Z" fill="white"/>
</svg> 